<svg xmlns="http://www.w3.org/2000/svg" xmlns:xlink="http://www.w3.org/1999/xlink" width="240" height="31.19" viewBox="0 0 240 31.19">
  <defs>
    <style>
      .cls-1 {
        fill-rule: evenodd;
        filter: url(#filter);
      }
    </style>
    <filter id="filter" x="440" y="3070" width="240" height="31.19" filterUnits="userSpaceOnUse">
      <feFlood result="flood" flood-color="#ef5443"/>
      <feComposite result="composite" operator="in" in2="SourceGraphic"/>
      <feBlend result="blend" in2="SourceGraphic"/>
    </filter>
  </defs>
  <path id="長方形_10_のコピー_5" data-name="長方形 10 のコピー 5" class="cls-1" d="M441.5,3070h112a1.5,1.5,0,0,1,0,3h-112A1.5,1.5,0,0,1,441.5,3070Zm133,0h104a1.5,1.5,0,0,1,0,3h-104A1.5,1.5,0,0,1,574.5,3070Zm-29.2,29.79,28.992-28.99,1.414,1.41-28.992,28.99Zm-1,0,28.992-28.99,1.414,1.41-28.992,28.99Z" transform="translate(-440 -3070)"/>
</svg>
